<svg width="245" height="51" viewBox="0 0 245 51" fill="none" xmlns="http://www.w3.org/2000/svg">
<circle cx="25" cy="25.7051" r="25" fill="white"/>
<g clip-path="url(#clip0_2_5763)">
<path d="M26.3333 23.8384L34.3333 19.3051V24.3717C35.2667 24.3717 36.2 24.5051 37 24.9051V17.0384C37 16.5051 36.7333 16.1051 36.3333 15.8384L25.8 9.97174C25.5333 9.83841 25.2667 9.70508 25 9.70508C24.7333 9.70508 24.4667 9.83841 24.2 9.97174L13.6667 15.8384C13.2667 16.1051 13 16.5051 13 17.0384V29.0384C13 29.5717 13.2667 29.9717 13.6667 30.2384L24.2 36.1051C24.4667 36.2384 24.7333 36.3717 25 36.3717C25.2667 36.3717 25.5333 36.2384 25.8 36.1051L27 35.4384C26.6 34.6384 26.4667 33.7051 26.3333 32.7717V23.8384ZM25 12.6384L33 17.0384L30.3333 18.5051L22.4667 13.9717L25 12.6384ZM23.6667 32.7717L15.6667 28.2384V19.3051L23.6667 23.8384V32.7717ZM25 21.4384L17 17.0384L19.6667 15.4384L27.6667 20.1051L25 21.4384ZM39.6667 31.0384V33.7051H29V31.0384H39.6667Z" fill="#2196F3"/>
</g>
<path d="M58.008 20.1811H59.898V28.4131H64.14V30.2051H58.008V20.1811ZM67.3765 21.9731V24.2971H71.3945V26.0891H67.3765V28.4131H71.8425V30.2051H65.4865V20.1811H71.8425V21.9731H67.3765ZM76.6463 30.4291C76.2169 30.4291 75.8063 30.3684 75.4143 30.2471C75.0223 30.1257 74.6629 29.9437 74.3363 29.7011C74.0096 29.4584 73.7249 29.1644 73.4823 28.8191C73.2396 28.4644 73.0483 28.0537 72.9083 27.5871L74.6863 26.8871C74.8169 27.3911 75.0456 27.8111 75.3723 28.1471C75.6989 28.4737 76.1283 28.6371 76.6603 28.6371C76.8563 28.6371 77.0429 28.6137 77.2203 28.5671C77.4069 28.5111 77.5703 28.4364 77.7103 28.3431C77.8596 28.2404 77.9763 28.1144 78.0603 27.9651C78.1443 27.8157 78.1863 27.6431 78.1863 27.4471C78.1863 27.2604 78.1536 27.0924 78.0883 26.9431C78.0229 26.7937 77.9109 26.6537 77.7523 26.5231C77.6029 26.3924 77.4023 26.2664 77.1503 26.1451C76.9076 26.0237 76.6043 25.8977 76.2403 25.7671L75.6243 25.5431C75.3536 25.4497 75.0783 25.3237 74.7983 25.1651C74.5276 25.0064 74.2803 24.8151 74.0563 24.5911C73.8323 24.3671 73.6456 24.1057 73.4963 23.8071C73.3563 23.4991 73.2863 23.1537 73.2863 22.7711C73.2863 22.3791 73.3609 22.0151 73.5103 21.6791C73.6689 21.3337 73.8883 21.0351 74.1683 20.7831C74.4576 20.5217 74.7983 20.3211 75.1903 20.1811C75.5916 20.0317 76.0349 19.9571 76.5203 19.9571C77.0243 19.9571 77.4583 20.0271 77.8223 20.1671C78.1956 20.2977 78.5083 20.4704 78.7603 20.6851C79.0216 20.8904 79.2316 21.1191 79.3903 21.3711C79.5489 21.6231 79.6656 21.8611 79.7403 22.0851L78.0743 22.7851C77.9809 22.5051 77.8083 22.2531 77.5563 22.0291C77.3136 21.8051 76.9776 21.6931 76.5483 21.6931C76.1376 21.6931 75.7969 21.7911 75.5263 21.9871C75.2556 22.1737 75.1203 22.4211 75.1203 22.7291C75.1203 23.0277 75.2509 23.2844 75.5123 23.4991C75.7736 23.7044 76.1889 23.9051 76.7583 24.1011L77.3883 24.3111C77.7896 24.4511 78.1536 24.6144 78.4803 24.8011C78.8163 24.9784 79.1009 25.1931 79.3343 25.4451C79.5769 25.6971 79.7589 25.9864 79.8803 26.3131C80.0109 26.6304 80.0763 26.9991 80.0763 27.4191C80.0763 27.9417 79.9689 28.3944 79.7543 28.7771C79.5489 29.1504 79.2829 29.4584 78.9563 29.7011C78.6296 29.9437 78.2609 30.1257 77.8503 30.2471C77.4396 30.3684 77.0383 30.4291 76.6463 30.4291ZM84.699 30.4291C84.2697 30.4291 83.859 30.3684 83.467 30.2471C83.075 30.1257 82.7157 29.9437 82.389 29.7011C82.0623 29.4584 81.7777 29.1644 81.535 28.8191C81.2923 28.4644 81.101 28.0537 80.961 27.5871L82.739 26.8871C82.8697 27.3911 83.0983 27.8111 83.425 28.1471C83.7517 28.4737 84.181 28.6371 84.713 28.6371C84.909 28.6371 85.0957 28.6137 85.273 28.5671C85.4597 28.5111 85.623 28.4364 85.763 28.3431C85.9123 28.2404 86.029 28.1144 86.113 27.9651C86.197 27.8157 86.239 27.6431 86.239 27.4471C86.239 27.2604 86.2063 27.0924 86.141 26.9431C86.0757 26.7937 85.9637 26.6537 85.805 26.5231C85.6557 26.3924 85.455 26.2664 85.203 26.1451C84.9603 26.0237 84.657 25.8977 84.293 25.7671L83.677 25.5431C83.4063 25.4497 83.131 25.3237 82.851 25.1651C82.5803 25.0064 82.333 24.8151 82.109 24.5911C81.885 24.3671 81.6983 24.1057 81.549 23.8071C81.409 23.4991 81.339 23.1537 81.339 22.7711C81.339 22.3791 81.4137 22.0151 81.563 21.6791C81.7217 21.3337 81.941 21.0351 82.221 20.7831C82.5103 20.5217 82.851 20.3211 83.243 20.1811C83.6443 20.0317 84.0877 19.9571 84.573 19.9571C85.077 19.9571 85.511 20.0271 85.875 20.1671C86.2483 20.2977 86.561 20.4704 86.813 20.6851C87.0743 20.8904 87.2843 21.1191 87.443 21.3711C87.6017 21.6231 87.7183 21.8611 87.793 22.0851L86.127 22.7851C86.0337 22.5051 85.861 22.2531 85.609 22.0291C85.3663 21.8051 85.0303 21.6931 84.601 21.6931C84.1903 21.6931 83.8497 21.7911 83.579 21.9871C83.3083 22.1737 83.173 22.4211 83.173 22.7291C83.173 23.0277 83.3037 23.2844 83.565 23.4991C83.8263 23.7044 84.2417 23.9051 84.811 24.1011L85.441 24.3111C85.8423 24.4511 86.2063 24.6144 86.533 24.8011C86.869 24.9784 87.1537 25.1931 87.387 25.4451C87.6297 25.6971 87.8117 25.9864 87.933 26.3131C88.0637 26.6304 88.129 26.9991 88.129 27.4191C88.129 27.9417 88.0217 28.3944 87.807 28.7771C87.6017 29.1504 87.3357 29.4584 87.009 29.7011C86.6823 29.9437 86.3137 30.1257 85.903 30.2471C85.4923 30.3684 85.091 30.4291 84.699 30.4291ZM94.3294 30.2051V21.9731H91.5294V20.1811H99.0194V21.9731H96.2194V30.2051H94.3294ZM100.363 20.1811H102.253V24.1851H106.467V20.1811H108.357V30.2051H106.467V25.9771H102.253V30.2051H100.363V20.1811ZM113.297 20.1811H115.453L119.219 30.2051H117.133L116.307 27.8111H112.443L111.617 30.2051H109.531L113.297 20.1811ZM115.691 26.0751L114.795 23.5691L114.431 22.3511H114.319L113.955 23.5691L113.059 26.0751H115.691ZM120.393 20.1811H122.591L126.623 26.9011H126.735L126.623 24.9691V20.1811H128.499V30.2051H126.511L122.255 23.1071H122.143L122.255 25.0391V30.2051H120.393V20.1811ZM135.154 30.2051V21.9731H132.354V20.1811H139.844V21.9731H137.044V30.2051H135.154ZM141.188 20.1811H144.842C145.346 20.1811 145.803 20.2604 146.214 20.4191C146.624 20.5777 146.974 20.7971 147.264 21.0771C147.562 21.3571 147.791 21.6931 147.95 22.0851C148.108 22.4677 148.188 22.8877 148.188 23.3451C148.188 23.6811 148.132 23.9984 148.02 24.2971C147.908 24.5864 147.754 24.8524 147.558 25.0951C147.362 25.3284 147.133 25.5384 146.872 25.7251C146.61 25.9024 146.335 26.0424 146.046 26.1451L146.032 26.2431L148.72 30.0931V30.2051H146.55L143.96 26.4391H143.078V30.2051H141.188V20.1811ZM144.828 24.7031C145.257 24.7031 145.607 24.5724 145.878 24.3111C146.158 24.0497 146.298 23.7184 146.298 23.3171C146.298 23.1397 146.265 22.9671 146.2 22.7991C146.144 22.6311 146.055 22.4817 145.934 22.3511C145.812 22.2204 145.658 22.1177 145.472 22.0431C145.294 21.9591 145.089 21.9171 144.856 21.9171H143.078V24.7031H144.828ZM153.537 30.4291C152.949 30.4291 152.413 30.3357 151.927 30.1491C151.451 29.9531 151.045 29.6731 150.709 29.3091C150.373 28.9451 150.112 28.5064 149.925 27.9931C149.739 27.4704 149.645 26.8777 149.645 26.2151V20.1811H151.535V26.3271C151.535 26.6631 151.577 26.9711 151.661 27.2511C151.745 27.5311 151.871 27.7737 152.039 27.9791C152.207 28.1844 152.417 28.3477 152.669 28.4691C152.921 28.5811 153.211 28.6371 153.537 28.6371C153.873 28.6371 154.167 28.5811 154.419 28.4691C154.671 28.3477 154.881 28.1844 155.049 27.9791C155.217 27.7737 155.343 27.5311 155.427 27.2511C155.511 26.9711 155.553 26.6631 155.553 26.3271V20.1811H157.443V26.2151C157.443 26.8404 157.35 27.4144 157.163 27.9371C156.986 28.4504 156.725 28.8937 156.379 29.2671C156.043 29.6311 155.633 29.9157 155.147 30.1211C154.671 30.3264 154.135 30.4291 153.537 30.4291ZM167.999 28.5951C167.504 29.1924 166.921 29.6497 166.249 29.9671C165.577 30.2751 164.825 30.4291 163.995 30.4291C163.248 30.4291 162.553 30.2937 161.909 30.0231C161.274 29.7524 160.723 29.3837 160.257 28.9171C159.79 28.4504 159.421 27.8997 159.151 27.2651C158.88 26.6211 158.745 25.9304 158.745 25.1931C158.745 24.4557 158.88 23.7697 159.151 23.1351C159.421 22.4911 159.79 21.9357 160.257 21.4691C160.723 21.0024 161.274 20.6337 161.909 20.3631C162.553 20.0924 163.248 19.9571 163.995 19.9571C164.797 19.9571 165.502 20.0971 166.109 20.3771C166.725 20.6571 167.271 21.0631 167.747 21.5951L166.417 22.8831C166.118 22.5377 165.773 22.2624 165.381 22.0571C164.998 21.8517 164.541 21.7491 164.009 21.7491C163.542 21.7491 163.103 21.8331 162.693 22.0011C162.282 22.1597 161.923 22.3884 161.615 22.6871C161.316 22.9857 161.078 23.3497 160.901 23.7791C160.723 24.1991 160.635 24.6704 160.635 25.1931C160.635 25.7157 160.723 26.1917 160.901 26.6211C161.078 27.0411 161.316 27.4004 161.615 27.6991C161.923 27.9977 162.282 28.2311 162.693 28.3991C163.103 28.5577 163.542 28.6371 164.009 28.6371C164.569 28.6371 165.063 28.5251 165.493 28.3011C165.931 28.0677 166.319 27.7411 166.655 27.3211L167.999 28.5951ZM169.516 20.1811H171.406V24.4791H171.518L175.186 20.1811H177.468V20.2931L173.842 24.4371L177.846 30.0931V30.2051H175.536L172.554 25.9351L171.406 27.2651V30.2051H169.516V20.1811ZM181.957 20.1811H183.847V28.4131H188.089V30.2051H181.957V20.1811ZM193.977 30.4291C193.23 30.4291 192.535 30.2937 191.891 30.0231C191.256 29.7524 190.705 29.3837 190.239 28.9171C189.772 28.4411 189.403 27.8857 189.133 27.2511C188.871 26.6071 188.741 25.9211 188.741 25.1931C188.741 24.4651 188.871 23.7837 189.133 23.1491C189.403 22.5051 189.772 21.9497 190.239 21.4831C190.705 21.0071 191.256 20.6337 191.891 20.3631C192.535 20.0924 193.23 19.9571 193.977 19.9571C194.723 19.9571 195.414 20.0924 196.049 20.3631C196.693 20.6337 197.248 21.0071 197.715 21.4831C198.181 21.9497 198.545 22.5051 198.807 23.1491C199.077 23.7837 199.213 24.4651 199.213 25.1931C199.213 25.9211 199.077 26.6071 198.807 27.2511C198.545 27.8857 198.181 28.4411 197.715 28.9171C197.248 29.3837 196.693 29.7524 196.049 30.0231C195.414 30.2937 194.723 30.4291 193.977 30.4291ZM193.977 28.6371C194.443 28.6371 194.877 28.5531 195.279 28.3851C195.689 28.2171 196.044 27.9837 196.343 27.6851C196.651 27.3864 196.889 27.0271 197.057 26.6071C197.234 26.1777 197.323 25.7064 197.323 25.1931C197.323 24.6797 197.234 24.2131 197.057 23.7931C196.889 23.3637 196.651 22.9997 196.343 22.7011C196.044 22.4024 195.689 22.1691 195.279 22.0011C194.877 21.8331 194.443 21.7491 193.977 21.7491C193.51 21.7491 193.071 21.8331 192.661 22.0011C192.259 22.1691 191.905 22.4024 191.597 22.7011C191.298 22.9997 191.06 23.3637 190.883 23.7931C190.715 24.2131 190.631 24.6797 190.631 25.1931C190.631 25.7064 190.715 26.1777 190.883 26.6071C191.06 27.0271 191.298 27.3864 191.597 27.6851C191.905 27.9837 192.259 28.2171 192.661 28.3851C193.071 28.5531 193.51 28.6371 193.977 28.6371ZM203.395 20.1811H205.551L209.317 30.2051H207.231L206.405 27.8111H202.541L201.715 30.2051H199.629L203.395 20.1811ZM205.789 26.0751L204.893 23.5691L204.529 22.3511H204.417L204.053 23.5691L203.157 26.0751H205.789ZM210.49 20.1811H213.878C214.672 20.1811 215.386 20.3024 216.02 20.5451C216.655 20.7877 217.196 21.1331 217.644 21.5811C218.092 22.0197 218.433 22.5471 218.666 23.1631C218.909 23.7791 219.03 24.4557 219.03 25.1931C219.03 25.9397 218.909 26.6211 218.666 27.2371C218.433 27.8531 218.092 28.3804 217.644 28.8191C217.196 29.2577 216.655 29.5984 216.02 29.8411C215.386 30.0837 214.672 30.2051 213.878 30.2051H210.49V20.1811ZM213.794 28.4131C214.345 28.4131 214.83 28.3384 215.25 28.1891C215.67 28.0304 216.02 27.8111 216.3 27.5311C216.58 27.2511 216.79 26.9151 216.93 26.5231C217.07 26.1217 217.14 25.6784 217.14 25.1931C217.14 24.7077 217.07 24.2691 216.93 23.8771C216.79 23.4757 216.58 23.1351 216.3 22.8551C216.02 22.5751 215.67 22.3604 215.25 22.2111C214.83 22.0524 214.345 21.9731 213.794 21.9731H212.38V28.4131H213.794ZM223.629 20.1811H225.519V28.4131H229.761V30.2051H223.629V20.1811ZM232.183 30.2051V21.9731H229.383V20.1811H236.873V21.9731H234.073V30.2051H232.183ZM238.217 20.1811H240.107V28.4131H244.349V30.2051H238.217V20.1811Z" fill="white"/>
<defs>
<clipPath id="clip0_2_5763">
<rect width="32" height="32" fill="white" transform="translate(9 9.70508)"/>
</clipPath>
</defs>
</svg>
