<svg width="649" height="396" viewBox="0 0 649 396" fill="none" xmlns="http://www.w3.org/2000/svg">
<path d="M629.904 131.985C629.95 159.863 621.122 187.033 604.698 209.561V209.561C591.423 227.823 573.683 242.374 553.177 251.821C532.671 261.269 510.084 265.297 487.577 263.521C465.069 261.745 443.393 254.224 424.623 241.677C405.852 229.131 390.615 211.978 380.367 191.859C370.12 171.741 365.206 149.33 366.095 126.77C366.984 104.21 373.646 82.2549 385.444 63.0051C397.242 43.7553 413.782 27.8545 433.481 16.8234C453.181 5.79226 475.381 -0.000197879 497.959 5.06999e-09C501.575 5.06998e-09 505.162 0.136457 508.68 0.428868C529.122 2.06431 548.895 8.47067 566.412 19.1334C579.932 27.3622 591.869 37.9455 601.657 50.3824C619.99 73.6144 629.949 102.352 629.924 131.946L629.904 131.985Z" fill="#EBEBEB"/>
<path d="M526.44 194.268C524.783 198.703 527.551 198.888 527.736 200.74C527.921 202.592 527.736 206.091 522.375 211.462C517.014 216.832 508.144 215.711 506.302 217.934C504.46 220.156 501.312 229.572 496.877 232.72C492.442 235.868 491.701 234.007 485.414 235.303C479.128 236.599 474.322 244.728 472.48 248.608C470.638 252.487 472.85 258.959 468.416 259.144C463.981 259.329 461.944 249.719 457.879 244.524C453.815 239.329 452.518 234.728 451.222 228.636C449.925 222.544 451.963 209.785 451.222 204.795C450.481 199.804 437.176 190.935 432.371 184.833C427.566 178.731 420.899 166.547 421.289 162.483C421.852 158.539 423.817 154.93 426.825 152.317C429.047 150.65 428.121 149.734 428.492 148.252C428.862 146.771 430.714 146.4 431.084 144.558C431.455 142.716 429.973 137.16 428.16 136.234C426.347 135.308 425.022 138.457 423.911 137.901C422.799 137.345 419.476 133.466 418.179 133.096C416.883 132.725 417.263 135.503 415.411 131.985C413.559 128.466 412.604 119.606 411.152 118.124C409.699 116.643 408.559 120.717 405.05 118.124C401.541 115.532 400.06 110.551 398.588 109.81C397.116 109.069 395.069 109.995 393.549 107.042C392.028 104.089 394.884 98.7179 393.549 99.2443C392.213 99.7706 389.348 104.05 388.607 99.985C387.866 95.9205 392.301 82.2454 391.531 74.8572C390.761 67.4689 393.383 59.7006 398.559 53.4137C398.559 53.4137 399.29 49.3492 400.03 46.7662C400.771 44.1833 416.669 33.8222 418.55 30.8688C419.32 29.631 419.583 27.7011 419.856 25.6152C442.488 8.93676 469.875 -0.0384576 497.988 0.00974515C501.604 0.00974515 505.191 0.146202 508.71 0.438613C508.827 0.604313 508.953 0.770012 509.08 0.925965C510.679 2.96309 512.404 4.25945 517.092 5.98468C521.781 7.7099 522.872 9.88349 521.898 11.7744C520.923 13.6653 519.305 13.987 517.463 14.1137C515.62 14.2404 513.885 13.2462 511.917 14.4841C509.948 15.722 508.018 22.3694 505.386 22.7398C502.754 23.1102 498.242 16.8234 497.247 14.9422C496.253 13.061 499.47 9.15246 497.959 7.31027C496.448 5.46808 493.807 5.82872 489.615 5.45833C485.424 5.08795 475.687 6.69621 476.057 8.29472C476.428 9.89323 490.346 8.0413 490.678 11.2188C491.009 14.3964 480.453 19.845 478.611 19.3479C476.769 18.8508 474.322 15.7804 471.583 15.3711C468.844 14.9617 466.71 17.223 464.955 17.4667C463.201 17.7103 461.242 15.6245 458.649 16.1118C456.056 16.5992 455.442 18.8215 454.087 19.689C452.733 20.5565 449.536 20.5467 449.165 22.5156C448.795 24.4845 453.23 25.6054 454.341 26.8336C455.452 28.0617 452.976 32.2529 454.087 33.1107C455.199 33.9684 462.1 27.9447 463.834 26.4632C465.569 24.9816 467.032 18.5778 470.735 18.6656C474.439 18.7533 475.658 25.0694 476.896 25.6834C478.133 26.2975 480.794 24.2019 484.908 25.0694C489.021 25.9368 491.799 34.8164 492.539 37.5163C493.28 40.2162 495.005 42.9357 493.514 44.0468C492.023 45.158 485.385 43.306 484.527 41.5808C483.67 39.8556 488.962 37.2629 488.592 36.6488C488.222 36.0348 485.142 35.1673 483.533 36.1322C481.925 37.0972 481.194 39.1148 479.469 39.6119C477.744 40.109 473.192 34.9236 471.954 36.4052C470.716 37.8867 473.192 42.5653 474.42 43.6764C475.648 44.7876 480.209 45.3919 480.58 46.6005C480.95 47.8092 477.5 50.4994 473.309 50.2947C469.117 50.09 465.677 46.8442 464.068 48.1991C462.46 49.5539 463.328 53.1311 462.216 54.3592C461.105 55.5873 455.072 54.7296 452.119 57.9363C449.165 61.1431 447.81 65.9386 444.847 68.6581C441.884 71.3775 440.539 67.927 436.592 71.7479C432.644 75.5687 432.04 84.0681 431.913 87.0215C431.786 89.9748 431.913 92.3141 430.938 91.895C429.964 91.4759 428.599 88.9709 428.229 87.3431C427.858 85.7154 429.086 83.0252 429.086 82.0407C429.086 81.0563 423.423 76.0073 420.09 75.5102C416.756 75.0131 413.813 77.7326 411.318 79.7015C408.822 81.6704 404.417 81.3097 402.818 82.9082C401.22 84.5067 399.982 98.6789 401.21 102.003C402.438 105.326 404.046 105.326 408.033 103.601C412.019 101.876 409.758 98.5522 412.097 99.293C413.149 99.6887 414.054 100.397 414.692 101.322C415.33 102.247 415.669 103.345 415.665 104.469C415.665 106.418 410.986 111.116 411.6 112.471C412.214 113.826 416.288 112.227 418.257 112.841C420.226 113.455 421.181 114.693 420.597 119.742C420.012 124.791 420.353 128.739 423.306 130.405C426.26 132.072 427.926 127.998 429.223 128.554C430.519 129.109 432.361 132.062 434.213 131.877C436.065 131.692 435.139 130.035 438.648 128.953C442.157 127.871 440.861 127.101 441.572 124.889C442.284 122.676 444.496 120.824 446.933 121.965C449.37 123.105 447.674 124.742 447.908 126.585C448.142 128.427 452.343 128.622 455.705 129.733C459.068 130.844 460.881 129.733 467.538 131.946C474.196 134.158 474.556 140.815 477.334 141.926C480.112 143.038 489.342 141.186 496 145.991C502.657 150.796 500.805 159.637 504.129 162.259C507.452 164.881 519.841 168.36 524.597 169.277C529.354 170.193 530.134 166.879 534.023 167.805C537.912 168.731 540.115 169.832 541.411 175.193C542.552 179.95 528.116 189.833 526.44 194.268Z" fill="#DBDBDB"/>
<path d="M427.138 99.7704C427.265 100.813 430.345 101.252 434.039 103.338C437.733 105.424 439.088 111.594 441.057 111.477C443.026 111.36 442.412 108.552 443.152 107.773C443.893 106.993 445.102 105.433 443.152 103.874C441.203 102.314 439.254 98.8249 435.667 98.3278C432.08 97.8307 431.446 96.3784 429.818 96.4856C429.416 96.4946 429.019 96.5909 428.657 96.7678C428.295 96.9446 427.976 97.1979 427.721 97.5101C427.466 97.8223 427.282 98.1861 427.181 98.5763C427.081 98.9665 427.066 99.3739 427.138 99.7704Z" fill="#DBDBDB"/>
<path d="M447.47 110.12C446.915 111.631 447.47 112.703 451.369 113.687C455.268 114.672 459.011 112.713 457.783 111.904C456.555 111.095 454.703 111.475 455.434 110.12C456.165 108.765 455.921 106.786 452.724 107.196C449.527 107.605 447.958 108.765 447.47 110.12Z" fill="#DBDBDB"/>
<path d="M461.259 110.543C459.924 110.738 459.173 113.078 460.528 114.559C461.883 116.041 461.883 115.787 463.452 114.559C465.022 113.331 467.517 112.707 466.903 111.479C466.289 110.251 462.624 110.329 461.259 110.543Z" fill="#DBDBDB"/>
<path d="M471.98 115.572C472.584 113.73 475.674 115.572 477.029 117.522C478.384 119.471 477.77 122.327 477.029 124.423C476.288 126.518 475.801 128.984 474.105 128C472.409 127.015 474.232 124.052 473.978 122.327C473.725 120.602 471.493 117.083 471.98 115.572Z" fill="#DBDBDB"/>
<path d="M525.086 12.7887C524.443 14.3385 527.425 14.8844 529.15 15.8688C530.876 16.8533 532.23 17.4673 533.215 15.8688C534.199 14.2703 532.845 12.4184 531.49 12.048C530.135 11.6776 525.7 11.3072 525.086 12.7887Z" fill="#DBDBDB"/>
<path d="M548.369 27.2035C549.51 28.4024 551.45 28.1782 552.804 29.9132C554.159 31.6482 553.672 34.5918 555.397 35.4593C557.122 36.3267 558.321 35.4593 558.477 34.2214C558.633 32.9835 556.011 29.9132 556.255 29.3479C556.498 28.7825 559.832 30.2056 560.573 32.0575C561.314 33.9095 559.832 36.4924 561.547 36.9311C563.263 37.3697 562.902 35.2058 563.643 34.7185C564.384 34.2311 565.982 34.4651 565.856 32.9933C565.729 31.5215 563.76 28.3049 562.162 27.2035C560.563 26.1021 559.325 24.8642 556.615 24.2794C553.906 23.6946 551.323 24.1625 549.958 25.2541C548.594 26.3458 547.668 26.5017 548.369 27.2035Z" fill="#DBDBDB"/>
<path d="M601.675 50.4233C601.601 50.9224 601.357 51.3805 600.983 51.7197C598.391 53.5716 595.311 47.158 591.743 45.9299C588.176 44.7018 586.597 40.1499 585.827 41.1246C585.057 42.0993 585.33 43.4639 584.218 45.0234C583.107 46.583 581.509 46.2613 580.778 49.3414C580.047 52.4214 584.218 58.1137 583.244 59.9364C582.269 61.7591 581.021 61.1645 579.043 61.0476C577.064 60.9306 577.444 62.6461 574.861 61.9053C572.278 61.1645 574.491 58.0065 570.426 54.1077C566.362 50.2089 564.997 49.5461 565.875 47.8208C566.752 46.0956 565.494 43.6394 567.346 43.3859C569.198 43.1325 570.67 45.8519 571.898 46.5927C573.126 47.3335 574.735 45.1112 574.822 43.1423C574.91 41.1734 570.504 38.4637 568.906 36.9334C567.307 35.4031 567.181 29.8376 567.795 28.7264C568.409 27.6152 570.261 27.9856 570.719 25.276C571.002 23.6872 568.487 21.0263 566.352 19.0963C579.906 27.3408 591.87 37.9514 601.675 50.4233V50.4233Z" fill="#DBDBDB"/>
<path d="M620.077 160.886C620.447 156.938 618.478 156.695 620.447 149.423C622.416 142.152 618.351 134.393 616.87 132.795C615.388 131.196 612.191 131.684 609.598 133.282C607.006 134.881 608.867 136.119 607.133 136.733C605.398 137.347 603.692 136.362 602.084 136.489C600.475 136.616 599.003 140.67 595.553 140.553C592.103 140.437 589.89 135.505 587.307 131.986C584.724 128.467 579.412 126.264 577.696 121.946C575.981 117.628 579.295 110.981 578.554 105.932C577.813 100.883 574.49 101.984 573.876 99.1091C573.262 96.2337 574.363 97.6276 575.23 94.9179C576.098 92.2082 574.256 90.7267 575.971 86.0481C577.687 81.3695 580.777 79.0205 580.036 76.9346C579.295 74.8487 576.956 71.3886 576.829 68.9323C576.702 66.4761 579.168 66.5833 583.847 63.0841C588.525 59.5849 589.763 59.8773 593.34 61.1347C595.904 62.0876 598.542 62.8308 601.226 63.357C603.321 63.7274 606.158 69.1467 607.016 68.9031C607.873 68.6594 607.99 67.0511 608.37 64.7118C608.606 63.6935 609.142 62.7697 609.91 62.0607C623.816 84.3628 630.748 110.308 629.819 136.574C628.89 162.84 620.142 188.23 604.696 209.494C617.269 190.38 619.735 164.824 620.077 160.886Z" fill="#DBDBDB"/>
<path d="M418.715 57.0792L418.5 56.3774L419.475 56.1045L419.68 56.8062L418.715 57.0792Z" fill="#C7C7C7"/>
<path d="M593.333 86.1627L591.92 84.8079L592.427 84.2815L593.84 85.6461L593.333 86.1627ZM590.497 83.4725L589.045 82.1664L589.532 81.6206C590.019 82.0495 590.507 82.4881 590.994 82.9364L590.497 83.4725ZM587.573 80.8798L586.081 79.6127L586.549 79.0474L588.05 80.3243L587.573 80.8798ZM584.561 78.3748C584.054 77.9655 583.586 77.5561 583.031 77.1565L583.479 76.5814L585.019 77.7998L584.561 78.3748ZM581.471 75.9673L579.902 74.8074L580.331 74.2129L581.91 75.3825L581.471 75.9673ZM578.313 73.667L576.695 72.5461L577.114 71.9418L578.732 73.0627L578.313 73.667ZM575.077 71.4642C574.521 71.1036 573.976 70.7429 573.43 70.4018L573.82 69.778L575.477 70.8501L575.077 71.4642ZM571.763 69.3588L570.087 68.3841L570.467 67.7506L572.153 68.7253L571.763 69.3588ZM568.4 67.4094L566.695 66.4347L567.045 65.7914L568.761 66.7661L568.4 67.4094ZM564.96 65.4893L563.225 64.5828L563.556 63.9395C564.141 64.2319 564.726 64.5341 565.301 64.846L564.96 65.4893ZM561.47 63.7056C560.885 63.4132 560.301 63.1305 559.716 62.8576L560.028 62.1948L561.802 63.0525L561.47 63.7056ZM557.942 62.0291L556.148 61.2201L556.45 60.5573L558.244 61.3565L557.942 62.0291ZM554.355 60.4501C553.75 60.1869 553.146 59.9432 552.542 59.6995L552.825 59.0172C553.429 59.2642 554.033 59.5176 554.638 59.7775L554.355 60.4501ZM550.729 58.9685L548.906 58.2765L549.169 57.5942L551.002 58.296L550.729 58.9685ZM547.084 57.6039L545.232 56.9509L545.475 56.2588L547.327 56.9119L547.084 57.6039ZM543.389 56.3271L541.528 55.7325L541.752 55.0307L543.614 55.635L543.389 56.3271ZM421.552 56.3271L421.357 55.6253L423.257 55.1087L423.442 55.8202L421.552 56.3271ZM425.343 55.3524L425.168 54.6408L427.117 54.173L427.293 54.8845L425.343 55.3524ZM539.695 55.2159L537.814 54.6603L538.019 53.9585L539.9 54.5141L539.695 55.2159ZM429.164 54.4361L428.998 53.7246L430.948 53.286L431.104 53.9975L429.164 54.4361ZM535.913 54.056C535.28 53.8903 534.656 53.7149 534.023 53.5589L534.208 52.8474L536.099 53.3542L535.913 54.056ZM432.956 53.5004L432.809 52.7889L434.759 52.3795L434.905 53.1008L432.956 53.5004ZM532.132 53.0716L530.182 52.6134L530.348 51.9019C530.981 52.0579 531.625 52.2041 532.297 52.3698L532.132 53.0716ZM436.806 52.7109L436.659 51.9896L438.609 51.6192L438.745 52.3405L436.806 52.7109ZM528.33 52.1846L526.381 51.7655L526.537 51.0539L528.486 51.473L528.33 52.1846ZM440.607 51.9799L440.48 51.2586L442.43 50.9175L442.547 51.6387L440.607 51.9799ZM524.431 51.3756L522.482 51.0052L522.618 50.2839C523.262 50.4106 523.905 50.5276 524.568 50.664L524.431 51.3756ZM444.506 51.3073L444.379 50.5861L446.329 50.2644L446.436 50.9857L444.506 51.3073ZM448.405 50.6933L448.297 49.9623L450.247 49.6796L450.344 50.4009L448.405 50.6933ZM520.65 50.6933L518.7 50.3716L518.817 49.6503L520.767 49.972L520.65 50.6933ZM452.294 50.1669L452.186 49.4457L454.136 49.1825L454.224 49.9135L452.294 50.1669ZM516.78 50.0597L514.831 49.7771L514.938 49.0558L516.887 49.3384L516.78 50.0597ZM456.183 49.6698L456.085 48.9193L458.035 48.6951L458.122 49.4164L456.183 49.6698ZM512.901 49.5139L510.951 49.2702L511.039 48.5489L512.988 48.7926L512.901 49.5139ZM460.082 49.2215L460.004 48.5002L461.953 48.2955L462.021 49.0265L460.082 49.2215ZM509.012 49.046L507.062 48.8413L507.13 48.1103L509.08 48.315L509.012 49.046ZM463.98 48.8413L463.922 48.1103L465.871 47.9446L465.93 48.6659L463.98 48.8413ZM505.103 48.6562L503.154 48.4904L503.212 47.7594L505.162 47.9251L505.103 48.6562ZM467.889 48.5099L467.84 47.7887L469.79 47.6425L469.838 48.3735L467.889 48.5099ZM501.195 48.3442L499.245 48.2175V47.4865L501.195 47.6132V48.3442ZM471.807 48.2468L471.758 47.5157L473.708 47.4085V48.1396L471.807 48.2468ZM497.286 48.1006L495.337 48.0128V47.2818L497.286 47.3793V48.1006ZM475.726 48.0421V47.3111L477.675 47.2331V47.9641L475.726 48.0421ZM493.368 47.9446C492.718 47.9446 492.068 47.9251 491.418 47.8861V47.1551C492.071 47.1551 492.734 47.1551 493.368 47.2136V47.9446ZM479.644 47.9446V47.2136H481.593V47.9446H479.644ZM489.449 47.8861H487.5V47.1551H489.449V47.8861ZM483.601 47.8861V47.0674H485.551V47.7984L483.601 47.8861Z" fill="#C7C7C7"/>
<path d="M595.468 88.3172L594.795 87.6252L595.312 87.1086L595.994 87.8103L595.468 88.3172Z" fill="#C7C7C7"/>
<path d="M448.333 136.557C448.264 136.207 448.235 135.851 448.246 135.494H448.977C448.965 135.792 448.988 136.089 449.045 136.381L448.333 136.557Z" fill="#C7C7C7"/>
<path d="M449.045 133.563H448.314C448.314 133.036 448.382 132.452 448.421 131.808V131.604L449.152 131.652V131.847C449.162 132.452 449.074 133.036 449.045 133.563ZM449.289 129.664L448.558 129.615C448.558 129.001 448.636 128.358 448.675 127.666H449.396C449.367 128.397 449.328 129.05 449.289 129.664ZM449.493 125.765H448.762C448.762 125.141 448.762 124.488 448.821 123.816H449.552C449.542 124.469 449.513 125.122 449.493 125.755V125.765ZM449.591 121.866H448.86C448.86 121.369 448.86 120.892 448.86 120.355V119.917H449.591V120.355C449.601 120.823 449.601 121.33 449.591 121.827V121.866ZM448.85 117.967C448.85 117.334 448.85 116.681 448.792 116.018H449.523C449.523 116.691 449.523 117.344 449.581 117.967H448.85ZM448.704 114.069C448.704 113.435 448.626 112.782 448.577 112.119L449.308 112.061C449.357 112.724 449.396 113.377 449.435 114.01L448.704 114.069ZM448.411 110.17C448.353 109.536 448.285 108.893 448.217 108.22L448.938 108.133C449.016 108.796 449.084 109.439 449.142 110.082L448.411 110.17ZM447.973 106.271C447.895 105.637 447.797 104.994 447.7 104.322L448.421 104.214C448.519 104.867 448.616 105.511 448.704 106.164L447.973 106.271ZM447.378 102.372C447.261 101.739 447.135 101.105 447.008 100.423L447.729 100.277C447.856 100.92 447.983 101.563 448.09 102.226L447.378 102.372ZM446.598 98.5611C446.462 97.9276 446.306 97.294 446.15 96.6604L446.862 96.485C447.018 97.1283 447.174 97.7619 447.32 98.4344L446.598 98.5611ZM445.624 94.7793C445.448 94.1652 445.263 93.5414 445.078 92.9176L445.77 92.7032C445.965 93.327 446.15 93.9605 446.326 94.5843L445.624 94.7793ZM444.483 91.0657C444.275 90.4549 444.061 89.8408 443.84 89.2235L444.532 88.97C444.756 89.5939 444.971 90.2079 445.175 90.8317L444.483 91.0657ZM443.148 87.4105C442.914 86.8062 442.67 86.2019 442.407 85.6073L443.08 85.3247C443.343 85.929 443.587 86.5333 443.83 87.1376L443.148 87.4105ZM441.618 83.8334C441.345 83.2485 441.072 82.6637 440.78 82.0789L441.433 81.7475C441.725 82.3421 442.008 82.9366 442.281 83.5215L441.618 83.8334ZM439.883 80.3537C439.581 79.7883 439.269 79.2133 438.908 78.6479L439.542 78.2873C439.873 78.8624 440.195 79.4277 440.516 80.0028L439.883 80.3537ZM437.933 76.9812C437.592 76.4354 437.251 75.8895 436.89 75.3437L437.505 74.9441C437.865 75.4899 438.216 76.0455 438.557 76.6011L437.933 76.9812ZM435.789 73.7354C435.419 73.2091 435.039 72.6925 434.649 72.1662L435.233 71.7276C435.633 72.2539 436.013 72.7802 436.393 73.3163L435.789 73.7354ZM433.46 70.6359C433.05 70.129 432.641 69.6612 432.222 69.1348L432.777 68.667C433.206 69.1641 433.615 69.6417 434.025 70.1778L433.46 70.6359ZM430.935 67.7118C430.496 67.2342 430.058 66.7371 429.6 66.2887L430.126 65.7819C430.587 66.2562 431.036 66.7338 431.471 67.2147L430.935 67.7118ZM428.225 64.9144C427.767 64.466 427.299 64.0274 426.812 63.5888L427.309 63.0429L428.742 64.388L428.225 64.9144ZM425.36 62.2924C424.872 61.8733 424.385 61.4639 423.868 61.0448L424.336 60.4795C424.843 60.8986 425.311 61.3177 425.837 61.7368L425.36 62.2924ZM422.348 59.8459C421.831 59.456 421.315 59.0662 420.779 58.686L421.207 58.0915L422.787 59.2611L422.348 59.8459Z" fill="#C7C7C7"/>
<path d="M419.214 57.5746L418.405 57.0288L418.814 56.4245L419.623 56.9703L419.214 57.5746Z" fill="#C7C7C7"/>
<path d="M450.404 132.237L449.867 131.74C449.867 131.74 450.092 131.486 450.54 131.028L451.066 131.535C450.628 131.983 450.413 132.227 450.404 132.237Z" fill="#C7C7C7"/>
<path d="M452.447 130.153L451.931 129.627L453.364 128.262L453.87 128.789L452.447 130.153ZM455.313 127.463L454.826 126.917C455.284 126.498 455.8 126.059 456.307 125.601L456.785 126.157C456.268 126.615 455.771 127.044 455.313 127.463V127.463ZM458.237 124.87L457.769 124.315C458.257 123.905 458.744 123.477 459.29 123.048L459.748 123.613L458.237 124.87ZM461.278 122.375L460.82 121.8L462.38 120.572L462.828 121.157C462.331 121.566 461.834 122.024 461.317 122.375H461.278ZM464.387 119.958L463.949 119.373C464.456 118.983 464.992 118.593 465.528 118.194L465.966 118.778C465.46 119.178 464.933 119.568 464.426 119.958H464.387ZM467.555 117.619L467.126 117.024L468.744 115.884L469.164 116.488L467.555 117.619ZM470.782 115.367L470.372 114.763L472.01 113.661L472.409 114.275C471.893 114.636 471.357 115.006 470.82 115.367H470.782ZM474.056 113.193L473.667 112.579L475.333 111.517L475.723 112.141L474.056 113.193ZM477.39 111.098L477.01 110.484L478.706 109.509L479.076 110.133L477.39 111.098ZM480.772 109.09L480.402 108.456L482.127 107.482L482.478 108.115L480.772 109.09ZM484.203 107.141L483.852 106.497L485.587 105.523L485.928 106.166L484.203 107.141ZM487.673 105.289L487.332 104.636L489.096 103.739L489.428 104.392C488.872 104.704 488.287 105.006 487.712 105.308L487.673 105.289ZM491.182 103.515L490.86 102.862L492.644 102.004L492.956 102.667L491.182 103.515ZM494.74 101.828L494.438 101.166L496.231 100.347L496.533 101.019L494.74 101.828ZM498.336 100.23L498.044 99.5573L499.857 98.7775L500.14 99.4599L498.336 100.23ZM501.962 98.7093L501.689 98.027L503.522 97.296L503.785 97.9783L501.962 98.7093ZM505.627 97.2765L505.364 96.5845L507.216 95.9022L507.469 96.5845C506.885 96.8281 506.27 97.0621 505.695 97.296L505.627 97.2765ZM509.321 95.9217L509.078 95.2296L510.949 94.5863L511.183 95.2784L509.321 95.9217ZM513.045 94.6643L512.82 93.9625L514.702 93.368L514.916 94.06L513.045 94.6643ZM516.797 93.4849L516.593 92.7831L518.483 92.2275L518.688 92.9293L516.797 93.4849ZM520.579 92.3933L520.384 91.6915L522.334 91.1749L522.519 91.8864L520.579 92.3933ZM524.38 91.4186L524.205 90.707L526.154 90.2392L526.32 90.9507C525.696 91.0969 525.053 91.2529 524.419 91.4186H524.38ZM528.211 90.5023L528.045 89.7908L529.995 89.3619L530.151 90.0832L528.211 90.5023ZM532.11 89.6836L531.964 88.9623L533.913 88.5822L534.05 89.3034C533.38 89.4204 532.73 89.5471 532.1 89.6836H532.11ZM536.009 88.9428L535.882 88.2215L537.831 87.8901L537.948 88.6114L536.009 88.9428ZM539.907 88.2995L539.8 87.5782L541.75 87.2858L541.857 88.0071L539.907 88.2995ZM592.824 88.0071L590.875 87.7537L590.972 87.0226L592.922 87.2858L592.824 88.0071ZM543.709 87.7439L543.611 87.0129L545.561 86.7692L545.648 87.5002L543.709 87.7439ZM588.828 87.51L586.878 87.2955L586.956 86.5743L588.906 86.7887L588.828 87.51ZM547.608 87.2761L547.53 86.545L549.479 86.3403L549.547 87.0714L547.608 87.2761ZM584.91 87.1006L582.96 86.9252L583.028 86.1941L584.978 86.3696L584.91 87.1006ZM551.555 86.9349L551.497 86.2039L553.446 86.0479V86.7692L551.555 86.9349ZM581.02 86.8082L579.071 86.6717L579.12 85.9407L581.069 86.0772L581.02 86.8082ZM555.473 86.6328V85.9115C556.127 85.9115 556.78 85.8238 557.423 85.7945V86.5255L555.473 86.6328ZM577.102 86.5548L575.153 86.4573V85.7263L577.102 85.8238V86.5548ZM559.401 86.4281V85.697L561.351 85.6288V86.3598L559.401 86.4281ZM573.174 86.3793L571.225 86.3208V85.5898L573.174 85.6483V86.3793ZM563.339 86.3111V85.5801C564.002 85.5801 564.655 85.5801 565.289 85.5801V86.3111C564.645 86.2429 563.992 86.2526 563.339 86.2721V86.3111ZM569.236 86.3111H567.287V85.5801H569.236V86.3111Z" fill="#C7C7C7"/>
<path d="M595.684 88.425L594.719 88.2788L594.826 87.5575L595.791 87.7037L595.684 88.425Z" fill="#C7C7C7"/>
<path d="M494.002 153.848L493.281 153.722C493.281 153.722 493.339 153.39 493.417 152.747L494.138 152.844C494.07 153.507 494.002 153.848 494.002 153.848Z" fill="#C7C7C7"/>
<path d="M419.446 57.3514L418.51 57.0785L418.705 56.3767L419.65 56.6496L419.446 57.3514Z" fill="#C7C7C7"/>
<path d="M594.865 88.6218L594.709 87.9005L595.684 87.7056L595.82 88.4269L594.865 88.6218Z" fill="#C7C7C7"/>
<path d="M475.251 223.444L475.111 224.408L475.835 224.513L475.974 223.548L475.251 223.444Z" fill="#C7C7C7"/>
<path d="M475.931 224.008L475.229 223.823C475.395 223.189 475.56 222.565 475.716 221.941L476.418 222.117C476.272 222.741 476.106 223.394 475.931 224.008ZM476.857 220.206L476.145 220.05C476.282 219.417 476.408 218.783 476.535 218.15L477.247 218.286C477.13 218.93 477.003 219.563 476.857 220.206V220.206ZM477.598 216.308L476.866 216.191C476.974 215.557 477.071 214.914 477.159 214.241L477.88 214.339C477.792 215.07 477.695 215.713 477.598 216.356V216.308ZM478.124 212.409L477.393 212.331C477.471 211.687 477.529 211.044 477.578 210.381L478.309 210.44C478.26 211.181 478.192 211.834 478.124 212.477V212.409ZM478.446 208.51H477.724C477.724 207.857 477.783 207.214 477.802 206.561H478.533C478.514 207.249 478.472 207.922 478.407 208.578L478.446 208.51ZM478.572 204.611H477.841V204.124C477.841 203.636 477.841 203.149 477.841 202.671H478.572C478.572 203.159 478.572 203.646 478.572 204.134V204.611ZM477.773 200.712C477.773 200.069 477.705 199.416 477.666 198.763L478.387 198.714C478.433 199.364 478.471 200.014 478.504 200.664L477.773 200.712ZM477.5 196.814C477.442 196.164 477.373 195.514 477.295 194.864L478.026 194.776C478.104 195.429 478.173 196.073 478.231 196.726L477.5 196.814ZM477.052 192.915C476.954 192.271 476.857 191.628 476.75 190.965L477.471 190.848C477.578 191.482 477.675 192.135 477.773 192.798L477.052 192.915ZM476.457 189.279C476.33 188.646 476.204 188.012 476.067 187.378L476.779 187.222C476.915 187.856 477.052 188.499 477.169 189.172L476.457 189.279ZM475.638 185.487L475.171 183.606L475.872 183.421C476.038 184.045 476.194 184.678 476.35 185.312L475.638 185.487ZM474.664 181.735C474.488 181.101 474.303 180.487 474.108 179.863L474.81 179.649C475.005 180.273 475.18 180.897 475.365 181.53L474.664 181.735ZM473.514 178.021C473.319 177.397 473.104 176.783 472.89 176.179L473.582 175.935C473.796 176.549 474.011 177.164 474.215 177.787L473.514 178.021ZM472.227 174.356C471.993 173.742 471.759 173.148 471.515 172.543L472.198 172.27C472.441 172.875 472.675 173.489 472.909 174.103L472.227 174.356ZM470.784 170.75C470.531 170.146 470.268 169.551 470.014 168.966L470.677 168.664C470.94 169.259 471.203 169.853 471.457 170.467L470.784 170.75ZM469.205 167.192C468.932 166.607 468.65 166.023 468.367 165.438L469.03 165.116C469.313 165.701 469.595 166.286 469.868 166.89L469.205 167.192ZM467.5 163.703C467.207 163.118 466.905 162.543 466.603 161.978L467.246 161.636C467.548 162.202 467.85 162.787 468.153 163.371L467.5 163.703ZM465.677 160.272L464.702 158.576L465.326 158.215C465.657 158.768 465.982 159.333 466.301 159.911L465.677 160.272ZM463.728 156.899C463.396 156.334 463.055 155.779 462.753 155.242L463.377 154.853C463.718 155.398 464.059 155.954 464.351 156.529L463.728 156.899ZM461.681 153.595C461.32 153.04 460.969 152.504 460.608 151.967L461.223 151.568L462.295 153.196L461.681 153.595ZM459.458 150.291C459.088 149.745 458.708 149.219 458.347 148.702L458.932 148.273C459.312 148.79 459.682 149.326 460.063 149.872L459.458 150.291ZM457.197 147.123L456.027 145.573L456.612 145.125L457.782 146.694L457.197 147.123ZM454.828 144.033L453.61 142.523L454.175 142.055C454.575 142.532 454.984 143.029 455.404 143.585L454.828 144.033ZM452.362 141.022L451.115 139.569L451.661 139.092C452.06 139.53 452.489 140.066 452.947 140.573L452.362 141.022ZM449.78 138.097C448.932 137.181 448.434 136.704 448.434 136.694L448.941 136.177C448.941 136.177 449.448 136.665 450.316 137.6L449.78 138.097Z" fill="#C7C7C7"/>
<path d="M426.882 42.9276C426.473 38.7949 423.617 34.6719 418.607 34.6719C413.597 34.6719 410.751 38.7949 410.342 42.9276C409.708 49.3119 414.016 55.1017 418.607 60.3748C423.208 55.1017 427.516 49.3119 426.882 42.9276ZM418.607 47.5185C417.71 47.5185 416.834 47.2524 416.088 46.7539C415.342 46.2555 414.761 45.5471 414.419 44.7183C414.076 43.8896 413.987 42.9777 414.162 42.0983C414.338 41.2188 414.771 40.4113 415.406 39.7778C416.04 39.1443 416.849 38.7134 417.729 38.5396C418.609 38.3658 419.52 38.457 420.348 38.8015C421.176 39.1461 421.883 39.7285 422.38 40.4751C422.877 41.2218 423.141 42.099 423.139 42.9958C423.137 44.1962 422.658 45.3465 421.808 46.1944C420.959 47.0423 419.807 47.5185 418.607 47.5185Z" fill="#4C38EE"/>
<path d="M603.603 71.2557C603.194 67.123 600.338 63 595.328 63C590.318 63 587.472 67.123 587.062 71.2557C586.429 77.64 590.737 83.4298 595.328 88.7029C599.928 83.4298 604.237 77.64 603.603 71.2557ZM595.328 75.8466C594.431 75.8466 593.554 75.5805 592.809 75.0821C592.063 74.5836 591.482 73.8752 591.139 73.0464C590.797 72.2177 590.708 71.3059 590.883 70.4264C591.059 69.5469 591.491 68.7394 592.126 68.1059C592.761 67.4724 593.57 67.0415 594.449 66.8678C595.329 66.694 596.241 66.7851 597.069 67.1297C597.897 67.4742 598.604 68.0566 599.101 68.8033C599.598 69.5499 599.862 70.4271 599.86 71.324C599.858 72.5243 599.379 73.6747 598.529 74.5225C597.679 75.3704 596.528 75.8466 595.328 75.8466V75.8466Z" fill="#4C38EE"/>
<path d="M455.556 121.573C455.147 117.44 452.291 113.317 447.281 113.317C442.271 113.317 439.425 117.44 439.015 121.573C438.382 127.957 442.69 133.747 447.281 139.02C451.881 133.718 456.19 127.957 455.556 121.573ZM447.281 126.164C446.384 126.164 445.508 125.898 444.763 125.4C444.017 124.902 443.437 124.194 443.093 123.366C442.75 122.538 442.661 121.626 442.836 120.747C443.01 119.868 443.442 119.06 444.076 118.426C444.71 117.793 445.517 117.361 446.397 117.186C447.276 117.011 448.187 117.101 449.015 117.444C449.843 117.787 450.551 118.368 451.049 119.113C451.547 119.859 451.813 120.735 451.813 121.631C451.813 122.833 451.336 123.986 450.486 124.836C449.636 125.686 448.483 126.164 447.281 126.164Z" fill="#4C38EE"/>
<path d="M483.709 213.692C483.299 209.549 480.443 205.436 475.433 205.436C470.423 205.436 467.577 209.549 467.168 213.692C466.534 220.076 470.843 225.856 475.433 231.139C480.034 225.856 484.342 220.076 483.709 213.692ZM475.482 218.283C474.586 218.281 473.711 218.013 472.967 217.514C472.223 217.015 471.643 216.306 471.302 215.478C470.96 214.65 470.872 213.739 471.048 212.86C471.224 211.982 471.656 211.175 472.29 210.542C472.925 209.909 473.732 209.478 474.611 209.304C475.49 209.13 476.401 209.221 477.229 209.564C478.056 209.907 478.763 210.488 479.261 211.233C479.759 211.978 480.024 212.854 480.024 213.75C480.024 214.346 479.907 214.937 479.678 215.487C479.45 216.038 479.115 216.538 478.693 216.959C478.271 217.38 477.771 217.713 477.22 217.94C476.669 218.168 476.078 218.284 475.482 218.283V218.283Z" fill="#C0B8FF"/>
<path d="M319.896 395.875C496.398 395.875 639.482 388.068 639.482 378.438C639.482 368.807 496.398 361 319.896 361C143.394 361 0.310486 368.807 0.310486 378.438C0.310486 388.068 143.394 395.875 319.896 395.875Z" fill="#EBEBEB"/>
<path d="M557.267 324.922H485.87V381.845H557.267V324.922Z" fill="#C0B8FF"/>
<path opacity="0.1" d="M557.267 324.922H485.87V381.845H557.267V324.922Z" fill="black"/>
<path d="M449 381.848H485.87V324.925H449V381.848Z" fill="#C0B8FF"/>
<path opacity="0.32" d="M449 381.848H485.87V324.925H449V381.848Z" fill="black"/>
<path d="M515.508 337.223H517.024H518.162L518.811 336.277L519.719 337.223L520.951 335.273L522.115 337.223H525.46H526.976L527.531 335.926L528.059 337.223H529.048V324.922H515.508V337.223Z" fill="white"/>
<path d="M451.544 377.928C454.252 373.873 456.96 369.812 459.668 365.744L467.671 353.502L475.551 341.25C478.178 337.15 480.768 333.03 483.323 328.891C480.615 332.945 477.907 337.007 475.199 341.074L467.197 353.317L459.316 365.617C456.708 369.692 454.117 373.795 451.544 377.928Z" fill="#C0B8FF"/>
<path d="M451.544 328.842C454.108 332.975 456.699 337.094 459.316 341.201L467.21 353.502L475.212 365.744C477.92 369.818 480.628 373.88 483.336 377.928C480.773 373.795 478.182 369.675 475.564 365.569L467.671 353.268L459.668 341.026C456.978 336.951 454.27 332.89 451.544 328.842Z" fill="#C0B8FF"/>
<path d="M590.316 268H518.919V324.923H590.316V268Z" fill="#C0B8FF"/>
<path opacity="0.1" d="M590.317 268H518.92V324.923H590.317V268Z" fill="black"/>
<path d="M482.062 324.932H518.932V268.009H482.062V324.932Z" fill="#C0B8FF"/>
<path opacity="0.32" d="M482.062 324.932H518.932V268.009H482.062V324.932Z" fill="black"/>
<path d="M548.576 280.301H550.079H551.217L551.866 279.355L552.774 280.301L554.006 278.351L555.17 280.301H558.515H560.045L560.6 279.004L561.114 280.301H562.103V268H548.576V280.301Z" fill="white"/>
<path d="M484.596 321.002C487.304 316.954 490.012 312.893 492.72 308.818L500.722 296.576L508.67 284.285C511.297 280.172 513.892 276.052 516.456 271.926C513.748 275.968 511.04 280.026 508.332 284.1L500.329 296.342L492.422 308.643C489.768 312.75 487.159 316.869 484.596 321.002Z" fill="#C0B8FF"/>
<path d="M484.596 271.926C487.168 276.059 489.759 280.178 492.368 284.285L500.262 296.576L508.264 308.818C510.972 312.893 513.68 316.954 516.388 321.002C513.815 316.869 511.22 312.75 508.602 308.643L500.708 296.342L492.706 284.1C490.043 280.026 487.34 275.968 484.596 271.926Z" fill="#C0B8FF"/>
<path d="M649.001 324.922H577.604V381.845H649.001V324.922Z" fill="#C0B8FF"/>
<path opacity="0.1" d="M649.001 324.922H577.604V381.845H649.001V324.922Z" fill="black"/>
<path d="M540.734 381.848H577.604V324.925H540.734V381.848Z" fill="#C0B8FF"/>
<path opacity="0.32" d="M540.734 381.848H577.604V324.925H540.734V381.848Z" fill="black"/>
<path d="M607.242 337.223H608.758H609.896L610.546 336.277L611.453 337.223L612.685 335.273L613.849 337.223H617.194H618.724L619.265 335.926L619.793 337.223H620.782V324.922H607.242V337.223Z" fill="white"/>
<path d="M543.278 377.928C545.986 373.873 548.694 369.812 551.402 365.744L559.405 353.502L567.285 341.25C569.912 337.15 572.503 333.03 575.057 328.891C572.349 332.945 569.641 337.007 566.933 341.074L558.931 353.317L551.05 365.617C548.442 369.692 545.851 373.795 543.278 377.928Z" fill="#C0B8FF"/>
<path d="M543.278 328.842C545.842 332.975 548.433 337.094 551.05 341.201L558.944 353.502L566.892 365.744C569.6 369.818 572.308 373.88 575.016 377.928C572.453 373.795 569.862 369.675 567.244 365.569L559.351 353.268L551.348 341.026C548.694 336.951 546.004 332.89 543.278 328.842Z" fill="#C0B8FF"/>
</svg>
