<svg width="24" height="25" viewBox="0 0 24 25" fill="none" xmlns="http://www.w3.org/2000/svg">
<path d="M1.66406 6.37109H22.3307V19.0378H1.66406V6.37109Z" fill="white"/>
<path d="M1.66406 6.37109H22.3307V8.03776H1.66406V6.37109ZM1.66406 9.37109H22.3307V10.7044H1.66406V9.37109ZM1.66406 12.0378H22.3307V13.3711H1.66406V12.0378Z" fill="#D22F27"/>
<path d="M1.66406 6.37109H12.3307V13.3711H1.66406V6.37109Z" fill="#1E50A0"/>
<path d="M1.66406 14.7051H22.3307V16.0384H1.66406V14.7051Z" fill="#D22F27"/>
<path d="M3.16927 8.62174C3.49144 8.62174 3.7526 8.36058 3.7526 8.03841C3.7526 7.71625 3.49144 7.45508 3.16927 7.45508C2.8471 7.45508 2.58594 7.71625 2.58594 8.03841C2.58594 8.36058 2.8471 8.62174 3.16927 8.62174Z" fill="white"/>
<path d="M5.83333 8.62174C6.1555 8.62174 6.41667 8.36058 6.41667 8.03841C6.41667 7.71625 6.1555 7.45508 5.83333 7.45508C5.51117 7.45508 5.25 7.71625 5.25 8.03841C5.25 8.36058 5.51117 8.62174 5.83333 8.62174Z" fill="white"/>
<path d="M8.4974 8.62174C8.81956 8.62174 9.08073 8.36058 9.08073 8.03841C9.08073 7.71625 8.81956 7.45508 8.4974 7.45508C8.17523 7.45508 7.91406 7.71625 7.91406 8.03841C7.91406 8.36058 8.17523 8.62174 8.4974 8.62174Z" fill="white"/>
<path d="M11.1693 8.62174C11.4914 8.62174 11.7526 8.36058 11.7526 8.03841C11.7526 7.71625 11.4914 7.45508 11.1693 7.45508C10.8471 7.45508 10.5859 7.71625 10.5859 8.03841C10.5859 8.36058 10.8471 8.62174 11.1693 8.62174Z" fill="white"/>
<path d="M9.83333 9.95573C10.1555 9.95573 10.4167 9.69456 10.4167 9.3724C10.4167 9.05023 10.1555 8.78906 9.83333 8.78906C9.51117 8.78906 9.25 9.05023 9.25 9.3724C9.25 9.69456 9.51117 9.95573 9.83333 9.95573Z" fill="white"/>
<path d="M7.16927 9.95573C7.49144 9.95573 7.7526 9.69456 7.7526 9.3724C7.7526 9.05023 7.49144 8.78906 7.16927 8.78906C6.8471 8.78906 6.58594 9.05023 6.58594 9.3724C6.58594 9.69456 6.8471 9.95573 7.16927 9.95573Z" fill="white"/>
<path d="M4.4974 9.95573C4.81956 9.95573 5.08073 9.69456 5.08073 9.3724C5.08073 9.05023 4.81956 8.78906 4.4974 8.78906C4.17523 8.78906 3.91406 9.05023 3.91406 9.3724C3.91406 9.69456 4.17523 9.95573 4.4974 9.95573Z" fill="white"/>
<path d="M3.16927 11.2878C3.49144 11.2878 3.7526 11.0266 3.7526 10.7044C3.7526 10.3823 3.49144 10.1211 3.16927 10.1211C2.8471 10.1211 2.58594 10.3823 2.58594 10.7044C2.58594 11.0266 2.8471 11.2878 3.16927 11.2878Z" fill="white"/>
<path d="M5.83333 11.2878C6.1555 11.2878 6.41667 11.0266 6.41667 10.7044C6.41667 10.3823 6.1555 10.1211 5.83333 10.1211C5.51117 10.1211 5.25 10.3823 5.25 10.7044C5.25 11.0266 5.51117 11.2878 5.83333 11.2878Z" fill="white"/>
<path d="M8.4974 11.2878C8.81956 11.2878 9.08073 11.0266 9.08073 10.7044C9.08073 10.3823 8.81956 10.1211 8.4974 10.1211C8.17523 10.1211 7.91406 10.3823 7.91406 10.7044C7.91406 11.0266 8.17523 11.2878 8.4974 11.2878Z" fill="white"/>
<path d="M11.1693 11.2878C11.4914 11.2878 11.7526 11.0266 11.7526 10.7044C11.7526 10.3823 11.4914 10.1211 11.1693 10.1211C10.8471 10.1211 10.5859 10.3823 10.5859 10.7044C10.5859 11.0266 10.8471 11.2878 11.1693 11.2878Z" fill="white"/>
<path d="M9.83333 12.6217C10.1555 12.6217 10.4167 12.3606 10.4167 12.0384C10.4167 11.7162 10.1555 11.4551 9.83333 11.4551C9.51117 11.4551 9.25 11.7162 9.25 12.0384C9.25 12.3606 9.51117 12.6217 9.83333 12.6217Z" fill="white"/>
<path d="M7.16927 12.6217C7.49144 12.6217 7.7526 12.3606 7.7526 12.0384C7.7526 11.7162 7.49144 11.4551 7.16927 11.4551C6.8471 11.4551 6.58594 11.7162 6.58594 12.0384C6.58594 12.3606 6.8471 12.6217 7.16927 12.6217Z" fill="white"/>
<path d="M4.4974 12.6217C4.81956 12.6217 5.08073 12.3606 5.08073 12.0384C5.08073 11.7162 4.81956 11.4551 4.4974 11.4551C4.17523 11.4551 3.91406 11.7162 3.91406 12.0384C3.91406 12.3606 4.17523 12.6217 4.4974 12.6217Z" fill="white"/>
<path d="M1.66406 17.3711H22.3307V19.0378H1.66406V17.3711Z" fill="#D22F27"/>
<path d="M1.66406 5.87109C1.38792 5.87109 1.16406 6.09495 1.16406 6.37109V19.0378C1.16406 19.3139 1.38792 19.5378 1.66406 19.5378H22.3307C22.6069 19.5378 22.8307 19.3139 22.8307 19.0378V6.37109C22.8307 6.09495 22.6069 5.87109 22.3307 5.87109H1.66406Z" stroke="white" stroke-linecap="round" stroke-linejoin="round"/>
</svg>
